<svg xmlns="http://www.w3.org/2000/svg" xmlns:xlink="http://www.w3.org/1999/xlink" viewBox="0,0,256,256" width="64px" height="64px" fill-rule="nonzero"><g fill="none" fill-rule="nonzero" stroke="none" stroke-width="1" stroke-linecap="butt" stroke-linejoin="miter" stroke-miterlimit="10" stroke-dasharray="" stroke-dashoffset="0" font-family="none" font-weight="none" font-size="none" text-anchor="none" style="mix-blend-mode: normal"><g transform="scale(4,4)"><path d="M45.41,55.83l-12.82,-9.4c-0.35142,-0.2568 -0.82858,-0.2568 -1.18,0l-12.82,9.4c-0.3073,0.22471 -0.71554,0.25544 -1.05302,0.07927c-0.33748,-0.17617 -0.54566,-0.52868 -0.53698,-0.90927v-47c0,-0.55228 0.44772,-1 1,-1h28c0.55228,0 1,0.44772 1,1v47c0.00867,0.3806 -0.1995,0.7331 -0.53698,0.90927c-0.33748,0.17617 -0.74571,0.14544 -1.05302,-0.07927z" fill-opacity="0.65882" fill="#0b0c0c"></path><path d="M45.41,48.83l-11.64,-8.53c-1.05635,-0.77527 -2.49365,-0.77527 -3.55,0l-11.63,8.53c-0.3073,0.22471 -0.71554,0.25544 -1.05302,0.07927c-0.33748,-0.17617 -0.54566,-0.52868 -0.53698,-0.90927v7c-0.00098,0.377 0.21015,0.72251 0.54607,0.89364c0.33592,0.17113 0.73954,0.13879 1.04393,-0.08364l12.82,-9.4c0.35142,-0.2568 0.82858,-0.2568 1.18,0l12.82,9.4c0.30439,0.22243 0.70801,0.25477 1.04393,0.08364c0.33592,-0.17113 0.54705,-0.51664 0.54607,-0.89364v-7c0.00867,0.3806 -0.1995,0.7331 -0.53698,0.90927c-0.33748,0.17617 -0.74571,0.14544 -1.05302,-0.07927z" fill-opacity="0.72157" fill="#222323"></path><path d="M46,7h-28c-0.55228,0 -1,0.44772 -1,1v5c0,-0.55228 0.44772,-1 1,-1h28c0.55228,0 1,0.44772 1,1v-5c0,-0.55228 -0.44772,-1 -1,-1z" fill-opacity="0" fill="#0b0c0c"></path><path d="M45,6h-26c-1.65685,0 -3,1.34315 -3,3v46c0.00181,0.7522 0.42551,1.43977 1.0966,1.77954c0.67109,0.33977 1.47607,0.27426 2.0834,-0.16954l12.22,-9c0.35142,-0.2568 0.82858,-0.2568 1.18,0l12.23,9c0.60742,0.44968 1.41644,0.51855 2.09114,0.17803c0.6747,-0.34052 1.09982,-1.03228 1.09886,-1.78803v-46c0,-1.65685 -1.34315,-3 -3,-3zM46,55l-12.23,-9c-1.05635,-0.77527 -2.49365,-0.77527 -3.55,0l-12.22,9v-46c0,-0.55228 0.44772,-1 1,-1h26c0.55228,0 1,0.44772 1,1z" fill="#222023"></path><path d="M37,10c-0.55228,0 -1,0.44772 -1,1v2c0,0.55228 0.44772,1 1,1c0.55228,0 1,-0.44772 1,-1v-2c0,-0.55228 -0.44772,-1 -1,-1zM42,10c-0.55228,0 -1,0.44772 -1,1v2c0,0.55228 0.44772,1 1,1c0.55228,0 1,-0.44772 1,-1v-2c0,-0.55228 -0.44772,-1 -1,-1zM22,10c-0.55228,0 -1,0.44772 -1,1v2c0,0.55228 0.44772,1 1,1c0.55228,0 1,-0.44772 1,-1v-2c0,-0.55228 -0.44772,-1 -1,-1zM27,10c-0.55228,0 -1,0.44772 -1,1v2c0,0.55228 0.44772,1 1,1c0.55228,0 1,-0.44772 1,-1v-2c0,-0.55228 -0.44772,-1 -1,-1zM32,10c-0.55228,0 -1,0.44772 -1,1v2c0,0.55228 0.44772,1 1,1c0.55228,0 1,-0.44772 1,-1v-2c0,-0.55228 -0.44772,-1 -1,-1z" fill="#222023"></path></g></g></svg>